<svg xmlns="http://www.w3.org/2000/svg" viewBox="0 0 1408.69141 324.44922"><g id="Слой_2" data-name="Слой 2"><g id="Слой_6" data-name="Слой 6"><path d="M0,318.97974V5.2507H134.91016q46.10887,0,83.43554,11.51,37.32423,11.51149,62.21,32.22877A141.79784,141.79784,0,0,1,318.85547,98.426q13.418,28.7213,13.41992,63.13873,0,33.842-13.542,62.66355a144.93644,144.93644,0,0,1-38.666,49.88423q-25.13085,21.06973-62.94238,32.96737-37.81641,11.902-84.168,11.89982Zm96.92383-76.35386h39.55078q44.18554,0,70.3125-21.19793,26.12109-21.19706,26.123-59.42212,0-37.34426-26.24512-58.87167Q180.418,81.60762,136.47461,81.60456H96.92383Zm258.97558,29.75394,54.19922-57.75765q52.563,37.63174,113.68555,37.63,19.2378,0,29.46484-5.79765,10.22609-5.79414,10.22754-16.73659,0-10.06033-12.05468-16.40842-12.04981-6.34284-46.627-13.5643-17.77881-3.71748-30.8916-6.89153-13.11474-3.16879-27.81641-7.98544A175.95931,175.95931,0,0,1,421.085,174.8044a133.86914,133.86914,0,0,1-20.0957-12.68918A69.36248,69.36248,0,0,1,385.30371,146.035a74.45275,74.45275,0,0,1-9.4375-20.23706,86.27455,86.27455,0,0,1-3.55176-25.37836q0-44.41038,36.84571-72.41584Q446.01123.00175,508.20117,0q86.22657,0,144.12012,41.568L603.61523,103.0449q-49.05029-30.84784-97.84765-30.84784-17.04492,0-26.05371,5.79764-9.01318,5.79941-9.01075,15.20514,0,10.94246,12.05079,16.95537,12.0498,6.01993,48.33593,13.45491,32.14014,6.34809,54.65723,13.89247A186.26208,186.26208,0,0,1,626.25488,156.427q17.98976,11.37825,26.79883,27.67554,8.811,16.30078,8.81152,38.17693,0,47.47679-38.6123,74.82241-38.61182,27.35087-103.11914,27.34737A301.07552,301.07552,0,0,1,430.168,311.21309Q387.63624,297.97871,355.89941,272.37982ZM708.252,318.97974V5.2507H810.791L894.28711,126.673,977.7832,5.2507h102.78321v313.729H983.64258V138.92465l-89.35547,122.735H892.334L803.22266,139.79976v179.18Zm433.83789,0V5.2507h96.92383V242.62588h169.67774v76.35386Z" style="fill:#fff"/></g></g></svg>