<?xml version="1.0" encoding="utf-8"?>
<!-- Generator: Adobe Illustrator 26.0.2, SVG Export Plug-In . SVG Version: 6.00 Build 0)  -->
<svg version="1.1" id="Слой_1" xmlns="http://www.w3.org/2000/svg" xmlns:xlink="http://www.w3.org/1999/xlink" x="0px" y="0px"
	 viewBox="0 0 1920 1080" style="enable-background:new 0 0 1920 1080;" xml:space="preserve">
<path d="M1174.1,712.1l135.7-44.1c194.5-63.2,395.7-128.6,593.6-192.8c0.5-0.2,0.9-0.3,1.2-0.4c-0.2-0.4-0.8-1.1-1.3-1.4
	c-73.4-45.3-140.5-86.6-205.1-126.3c-2.1-1.3-4.4-2.9-5.7-5.6c-1.5-2.9-1.4-6,0.1-9.5c0,0,0-0.1,0-0.1c-2.5-7.3-5.3-15-8.5-23.9
	l-8.7,17.2l-2.9,5.7l-5.5-3.3c-0.8-0.5-1.5-0.9-2.1-1.3c-1.3-0.8-2.5-1.5-3.6-2.2c-7.3-4.5-14.5-9-21.8-13.4
	c-23.2-14.3-47.3-29.1-70.9-43.6c-6.2-3.8-8.6-8.7-7-14.6c0.7-2.5,0.8-4.5-3.9-7.4c-1.9-1.2-3.4-2.6-4.9-4.1
	c-6.7-6.7-15.4-10.3-26.6-11l-3.4-0.2l-1.6-3c-0.5-0.9-0.8-1.8-1.2-2.5c-0.2-0.6-0.6-1.3-0.8-1.6c-0.8-0.8-1.7-1.6-2.5-2.4
	c-3.3-3.2-6.5-6.3-9.9-8.3l-1.4-0.8c-5.9-3.4-11.4-6.7-17.1-6.7c-2.2,0-4.3,0.5-6.6,1.5c-1.1,0.5-3.9,1.6-6.8,1.6
	c-1.8,0-3.4-0.4-4.8-1.2c-0.9-0.5-1.9-1.1-3-1.6c-4.5-2.4-10.2-5.3-12.8-12.3c-0.2-0.2-0.8-0.7-2.2-1.6
	c-15.7-9.8-36.5-22.6-57.7-35.5c-1.3-0.8-3.1-1.3-4.6-1.4c-0.2,0-0.4,0-0.6,0c-8.1,0-16.8,7.2-19.3,16.2c-0.3,1-0.6,1.9-0.9,2.8
	c-0.2,0.4-0.3,0.9-0.5,1.4l-2.4,7.1l-6.4-3.8c-1.1-0.7-2.3-1.3-3.4-1.9c-2.6-1.4-5-2.8-7.4-4.6c-2.1-1.6-4-2.3-6.2-2.3
	c-1.8,0-3.8,0.5-6.1,1.5c-7.1,3.2-11.5,8.2-13.4,15.4c-1.9,7.1-6.6,7.8-8.5,7.8c-2.4,0-4.6-1-6.9-3.1c-5.1-4.7-11.5-7.7-18.3-10.8
	c-3-1.4-6.1-2.8-9.1-4.4c-1.1-0.6-2-0.8-3.1-0.8c-0.9,0-1.9,0.2-3.2,0.6c-45.4,14.7-91.6,29.5-136.3,43.9
	c-13.3,4.3-26.5,8.5-39.8,12.8c-9.5,3-18.9,6.1-28.3,9.1l-7.4,2.4c0.1,0.6,0.1,1.3,0.1,2c0,3.1,0,6.3,0,9.3c0,4.1,0,8.4,0.1,12.5
	c0.3,8.4-6,10.7-8.1,11.5c-5.7,2.1-11.6,3.8-17.2,5.5c-4.6,1.4-9.3,2.7-13.8,4.3c-13.7,4.8-27.8,9.3-41.4,13.6
	c-8.2,2.6-16.8,5.4-25.1,8.1c-1.8,0.6-3.3,0.9-4.7,0.9c-2.5,0-5.8-0.9-8.4-4.7c-0.1,0.2-0.2,0.5-0.3,0.7c-3,7.7-9,10.4-13.9,12
	c-26.9,8.6-54.2,17.5-80.6,26.1c-9.8,3.2-19.7,6.4-29.5,9.6l-55.9,18.2C518.6,452.5,264.8,534.9,15.3,615.9
	c-0.7,0.2-1.2,0.4-1.5,0.6c0.2,0.2,0.9,1,2.8,2.2c64.2,39.6,128.5,79.1,192.7,118.7c99,61,201.5,124.1,302.2,186.1
	c2.6,1.6,4.1,1.8,5.2,1.8c1,0,2.2-0.2,3.6-0.7c178.3-58.1,359.7-117,535.1-174L1174.1,712.1z"/>
</svg>
