<svg width="180" height="67" viewBox="0 0 180 67" fill="none" xmlns="http://www.w3.org/2000/svg">
<g clip-path="url(#clip0_1025_6)">
<path d="M5.71066 44.2944C8.04061 43.0382 10.5076 41.5958 12.7462 40.3861C16.2183 38.4785 14.4822 35.0354 12.1523 33.0812C12.1523 33.0812 11.6497 32.6625 10.8731 31.9646C7.94924 29.3125 5.20812 23.9153 6.35025 19.4486C6.62436 19.1229 6.89848 18.7972 7.26396 18.4715C5.5736 19.7743 4.15736 21.3563 2.92386 23.0312C-0.730964 28.0097 -1.36153e-08 35.966 0.182741 41.9215C0.274112 44.8063 3.56345 45.4111 5.71066 44.2944ZM14.5279 23.0778C18.5482 20.7049 22.6599 18.2854 26.6802 15.866C29.9239 13.9118 31.5228 11.3993 31.4315 7.49097C31.4315 4.97847 31.4315 2.46597 31.4315 0C24.1218 5.53681 16.8579 11.1201 9.59391 16.7035C8.17766 17.9597 7.49239 19.6347 7.49239 21.6354C7.49239 24.3806 8.81726 27.2653 10.4162 29.359C10.0051 26.8931 11.467 24.8458 14.5279 23.0778ZM31.5228 24.7528C31.5228 24.6132 31.5228 24.4271 31.4772 24.2875C31.4772 24.241 31.4772 24.1944 31.4772 24.1944C31.4315 24.0549 31.4315 23.9618 31.3858 23.8222V23.7757C31.3401 23.6361 31.2944 23.5431 31.203 23.4035C31.203 23.3569 31.1574 23.3569 31.1574 23.3104C31.1117 23.2174 31.066 23.1243 30.9746 23.0312L30.9289 22.9847C30.8376 22.8917 30.7462 22.7986 30.6548 22.7056L30.6091 22.659C30.5178 22.6125 30.4721 22.5194 30.3807 22.4729C30.335 22.4729 30.335 22.4264 30.2893 22.4264C30.198 22.3799 30.0609 22.2868 29.9695 22.2403C29.9695 22.2403 29.9239 22.2403 29.9239 22.1938C29.8325 22.1472 29.7411 22.1007 29.6041 22.0542C29.5584 22.0542 29.5584 22.0542 29.5127 22.0076C29.3756 21.9611 29.2843 21.9146 29.1472 21.9146C29.1472 21.9146 29.1472 21.9146 29.1015 21.9146C28.9645 21.8681 28.8731 21.8681 28.736 21.8681C28.6904 21.8681 28.6447 21.8681 28.6447 21.8681C28.5076 21.8681 28.4162 21.8681 28.2792 21.8681H28.2335C28.1878 21.8681 28.1878 21.8681 28.1421 21.8681C28.0051 21.8681 27.8223 21.8681 27.6853 21.9146C27.6396 21.9146 27.5939 21.9146 27.5025 21.9611C27.3655 21.9611 27.2741 22.0076 27.1371 22.0076C27.0914 22.0076 27 22.0542 26.9543 22.0542C26.8173 22.1007 26.7259 22.1007 26.5888 22.1472C26.5431 22.1472 26.4975 22.1938 26.4518 22.1938C26.269 22.2403 26.132 22.3333 25.9949 22.4264C23.665 23.6826 21.198 25.125 18.9594 26.3347C15.4873 28.2424 17.2233 31.6854 19.5533 33.6396C19.5533 33.6396 19.6904 33.7326 19.9188 33.9188C20.0102 34.0118 20.1472 34.1514 20.3299 34.291C20.467 34.4306 20.6497 34.5701 20.8782 34.7562C23.7107 37.3618 28.0051 41.2236 27.7766 44.9924C28.1421 44.5736 28.4619 44.1083 28.8274 43.6431C29.2843 43.0382 29.6497 42.3403 30.0152 41.6424C30.5178 40.5722 30.8832 39.4556 31.1117 38.2458C31.2944 37.4549 31.4315 36.6174 31.5228 35.8264C31.8883 32.0576 31.6142 28.1028 31.5228 24.7528ZM21.2437 36.9896C21.7919 39.5951 20.3299 41.7354 17.1777 43.5965C13.1574 45.9694 9.04568 48.3889 5.02538 50.8083C1.78173 52.7625 0.182741 55.275 0.274112 59.1833C0.274112 61.6958 0.274112 64.2083 0.274112 66.6743C7.99492 60.8118 15.67 54.9028 23.3452 49.0403L24.8528 47.6444C25.8579 46.7139 26.3147 45.7833 26.3147 44.7132C26.3604 42.1542 23.5736 39.1764 21.2437 36.9896Z" fill="#252739"/>
<path d="M153.914 25.6833C154.325 25.6833 154.736 25.7764 155.147 26.009C155.558 26.2417 155.832 26.5208 156.061 26.9396C156.289 27.3583 156.381 27.7771 156.381 28.1958C156.381 28.6146 156.289 29.0799 156.061 29.4521C155.832 29.8708 155.513 30.15 155.147 30.3827C154.736 30.6153 154.325 30.7083 153.914 30.7083C153.502 30.7083 153.091 30.6153 152.68 30.3827C152.269 30.15 151.995 29.8708 151.766 29.4521C151.538 29.0799 151.447 28.6146 151.447 28.1958C151.447 27.7771 151.538 27.3583 151.766 26.9396C151.995 26.5208 152.315 26.2417 152.68 26.009C153.091 25.7764 153.502 25.6833 153.914 25.6833ZM153.959 26.1952C153.594 26.1952 153.274 26.2882 153 26.4743C152.68 26.6604 152.452 26.8931 152.269 27.2188C152.086 27.5445 151.995 27.8702 151.995 28.2424C151.995 28.6146 152.086 28.9403 152.269 29.266C152.452 29.5917 152.68 29.8243 153 30.0104C153.32 30.1965 153.64 30.2896 154.005 30.2896C154.371 30.2896 154.69 30.1965 155.01 30.0104C155.33 29.8243 155.558 29.5917 155.741 29.266C155.924 28.9403 156.015 28.6146 156.015 28.2424C156.015 27.8702 155.924 27.5445 155.741 27.2188C155.558 26.8931 155.33 26.6604 155.01 26.4743C154.599 26.2417 154.279 26.1952 153.959 26.1952ZM152.817 29.5452V26.8931H153.365C153.868 26.8931 154.142 26.8931 154.188 26.8931C154.371 26.8931 154.508 26.9396 154.599 26.9861C154.69 27.0327 154.782 27.1257 154.827 27.2188C154.873 27.3118 154.919 27.4514 154.919 27.591C154.919 27.7771 154.873 27.9632 154.736 28.1028C154.599 28.2424 154.462 28.3354 154.233 28.3354C154.325 28.382 154.371 28.382 154.416 28.4285C154.462 28.475 154.508 28.5215 154.599 28.6146C154.599 28.6611 154.69 28.7542 154.782 28.9403L155.101 29.4986H154.416L154.188 29.0799C154.051 28.8007 153.914 28.6146 153.822 28.5215C153.731 28.4285 153.594 28.4285 153.457 28.4285H153.32V29.5452H152.817ZM153.365 28.0097H153.594C153.914 28.0097 154.096 28.0097 154.142 27.9632C154.233 27.9632 154.279 27.9167 154.325 27.8236C154.371 27.7771 154.371 27.684 154.371 27.6375C154.371 27.591 154.371 27.4979 154.325 27.4514C154.279 27.4049 154.233 27.3583 154.142 27.3118C154.051 27.3118 153.868 27.2653 153.594 27.2653H153.365V28.0097Z" fill="#252739"/>
<path d="M44.3604 43.9687C42.9442 43.9687 41.5736 43.7826 40.203 43.4103C38.8782 43.0381 37.7817 42.5728 36.9137 41.968L38.5584 38.2458C39.335 38.7576 40.2487 39.2228 41.2995 39.5485C42.3502 39.8742 43.3553 40.0603 44.3604 40.0603C46.2792 40.0603 47.2386 39.5485 47.2386 38.618C47.2386 38.1062 46.9645 37.734 46.4162 37.4548C45.868 37.2221 45 36.943 43.8122 36.6638C42.4873 36.3846 41.3909 36.059 40.4771 35.7333C39.6091 35.4076 38.8325 34.8492 38.1929 34.1513C37.5533 33.4069 37.2335 32.4298 37.2335 31.1735C37.2335 30.0569 37.5076 29.0798 38.1015 28.1958C38.6954 27.3117 39.5634 26.6138 40.7513 26.102C41.8934 25.5902 43.3553 25.311 45.0457 25.311C46.1878 25.311 47.3299 25.4506 48.4721 25.7298C49.6142 26.009 50.5736 26.3812 51.4416 26.893L49.8883 30.6617C48.198 29.7312 46.599 29.2659 45 29.2659C43.9949 29.2659 43.3096 29.4055 42.8528 29.7312C42.3959 30.0103 42.1675 30.4291 42.1675 30.8944C42.1675 31.3596 42.4416 31.7319 42.9898 31.9645C43.5381 32.1971 44.4061 32.4763 45.5939 32.709C46.9188 32.9881 48.0609 33.3138 48.9289 33.6395C49.7969 33.9652 50.5736 34.5235 51.2132 35.2214C51.8528 35.9659 52.1726 36.943 52.1726 38.1992C52.1726 39.2694 51.8985 40.2465 51.3046 41.1305C50.7107 42.0145 49.8426 42.7124 48.6548 43.2242C47.467 43.6895 46.0507 43.9687 44.3604 43.9687ZM54.4568 25.6833H59.4365V43.5965H54.4568V25.6833ZM76.4771 34.2444C77.4822 34.6166 78.2589 35.1749 78.8528 35.9194C79.401 36.6638 79.7208 37.5944 79.7208 38.6645C79.7208 40.2465 79.0812 41.4562 77.8477 42.2937C76.6142 43.1312 74.8325 43.5965 72.4568 43.5965H62.9543V25.6833H71.9543C74.1929 25.6833 75.9289 26.102 77.0711 26.9395C78.2589 27.777 78.8528 28.9402 78.8528 30.3826C78.8528 31.2201 78.67 32.011 78.2589 32.6624C77.8477 33.3138 77.2538 33.8721 76.4771 34.2444ZM67.8883 29.3124V32.7555H71.3147C73.0051 32.7555 73.8274 32.1971 73.8274 31.0339C73.8274 29.8708 73.0051 29.3124 71.3147 29.3124H67.8883ZM72.0914 39.9208C73.8274 39.9208 74.6954 39.3159 74.6954 38.1062C74.6954 36.8965 73.8274 36.2916 72.0914 36.2916H67.934V39.9208H72.0914ZM88.4924 43.9687C87.0761 43.9687 85.7056 43.7826 84.335 43.4103C83.0101 43.0381 81.9137 42.5728 81.0457 41.968L82.6903 38.2458C83.467 38.7576 84.3807 39.2228 85.4315 39.5485C86.4822 39.8742 87.4873 40.0603 88.4924 40.0603C90.4112 40.0603 91.3705 39.5485 91.3705 38.618C91.3705 38.1062 91.0964 37.734 90.5482 37.4548C90 37.2221 89.132 36.943 87.8985 36.6638C86.5736 36.3846 85.4771 36.059 84.5634 35.7333C83.6954 35.4076 82.9188 34.8492 82.2792 34.1513C81.6396 33.4069 81.3198 32.4298 81.3198 31.1735C81.3198 30.0569 81.5939 29.0798 82.1878 28.1958C82.7817 27.3117 83.6497 26.6138 84.8376 26.102C86.0254 25.5902 87.4416 25.311 89.132 25.311C90.2741 25.311 91.4162 25.4506 92.5584 25.7298C93.7005 26.009 94.6599 26.3812 95.5279 26.893L93.9746 30.6617C92.2843 29.7312 90.6853 29.2659 89.0863 29.2659C88.0812 29.2659 87.3959 29.4055 86.9391 29.7312C86.4822 30.0103 86.2538 30.4291 86.2538 30.8944C86.2538 31.3596 86.5279 31.7319 87.0761 31.9645C87.6244 32.1971 88.4924 32.4763 89.6802 32.709C91.0051 32.9881 92.1472 33.3138 93.0152 33.6395C93.8832 33.9652 94.6599 34.5235 95.2995 35.2214C95.9391 35.9194 96.2589 36.943 96.2589 38.1992C96.2589 39.2694 95.9848 40.2465 95.3909 41.1305C94.7969 42.0145 93.9289 42.7124 92.7411 43.2242C91.599 43.6895 90.1827 43.9687 88.4924 43.9687ZM102.061 29.6846H96.67V25.6833H112.431V29.6846H107.041V43.5965H102.061V29.6846ZM125.223 40.1069H117.777L116.406 43.5965H111.335L119.102 25.6833H123.99L131.802 43.5965H126.64L125.223 40.1069ZM123.761 36.3846L121.477 30.6617L119.193 36.3846H123.761ZM140.893 38.8506H138.152V43.5965H133.173V25.6833H141.213C142.812 25.6833 144.183 25.9624 145.371 26.4742C146.558 27.0326 147.426 27.777 148.066 28.8006C148.706 29.8242 149.025 30.9874 149.025 32.3367C149.025 33.686 148.706 34.7562 148.112 35.7333C147.518 36.7103 146.65 37.4548 145.553 38.0131L149.345 43.643H144L140.893 38.8506ZM144 32.2902C144 31.4527 143.726 30.8013 143.223 30.336C142.721 29.8708 141.944 29.6381 140.893 29.6381H138.107V34.8958H140.893C141.898 34.8958 142.675 34.6631 143.223 34.1978C143.772 33.7791 144 33.1277 144 32.2902Z" fill="#252739"/>
<path d="M124.629 54.3909H127.142V59.2763C126.503 59.7881 125.772 60.1603 124.904 60.393C124.036 60.6721 123.213 60.8117 122.345 60.8117C121.112 60.8117 120.015 60.5326 119.01 60.0208C118.051 59.4624 117.274 58.7645 116.68 57.7874C116.132 56.8569 115.858 55.7867 115.858 54.577C115.858 53.3673 116.132 52.2971 116.68 51.3666C117.228 50.436 118.005 49.6916 119.01 49.1333C120.015 48.5749 121.112 48.3423 122.345 48.3423C123.396 48.3423 124.31 48.5284 125.178 48.8541C126.046 49.2263 126.731 49.7381 127.325 50.3895L125.543 52.0645C124.675 51.1805 123.67 50.7152 122.482 50.7152C121.751 50.7152 121.066 50.8548 120.472 51.1805C119.878 51.5062 119.421 51.9715 119.102 52.5298C118.782 53.0881 118.599 53.786 118.599 54.5305C118.599 55.2749 118.782 55.9263 119.102 56.5312C119.421 57.136 119.878 57.5548 120.472 57.8805C121.066 58.2062 121.706 58.3923 122.482 58.3923C123.259 58.3923 123.99 58.2062 124.629 57.8805V54.3909ZM137.239 60.5791L134.954 57.2291H132.442V60.5791H129.701V48.5284H134.817C135.868 48.5284 136.782 48.7145 137.558 49.0867C138.335 49.459 138.929 49.9242 139.34 50.5756C139.751 51.227 139.98 52.018 139.98 52.902C139.98 53.786 139.751 54.577 139.34 55.2284C138.929 55.8798 138.335 56.3916 137.558 56.7173L140.208 60.5791H137.239ZM137.147 52.902C137.147 52.2041 136.919 51.6923 136.508 51.3201C136.096 50.9478 135.457 50.7617 134.635 50.7617H132.396V54.9492H134.635C135.457 54.9492 136.096 54.7631 136.508 54.3909C136.919 54.0187 137.147 53.5999 137.147 52.902ZM147.838 60.8117C146.604 60.8117 145.508 60.5326 144.503 60.0208C143.497 59.4624 142.721 58.718 142.173 57.7874C141.624 56.8569 141.35 55.7867 141.35 54.577C141.35 53.3673 141.624 52.3437 142.173 51.3666C142.721 50.436 143.497 49.6916 144.503 49.1333C145.508 48.5749 146.604 48.3423 147.838 48.3423C149.071 48.3423 150.168 48.6215 151.173 49.1333C152.132 49.6916 152.909 50.436 153.503 51.3666C154.096 52.2971 154.371 53.3673 154.371 54.577C154.371 55.7867 154.096 56.8103 153.503 57.7874C152.954 58.718 152.178 59.4624 151.173 60.0208C150.168 60.5326 149.071 60.8117 147.838 60.8117ZM147.838 58.4388C148.523 58.4388 149.162 58.2992 149.756 57.927C150.305 57.6013 150.761 57.136 151.081 56.5777C151.401 55.9728 151.584 55.3215 151.584 54.577C151.584 53.8326 151.401 53.1812 151.081 52.5763C150.761 51.9715 150.305 51.5527 149.756 51.227C149.208 50.9013 148.569 50.7152 147.838 50.7152C147.152 50.7152 146.513 50.9013 145.965 51.227C145.416 51.5527 144.959 52.018 144.64 52.5763C144.32 53.1812 144.137 53.8326 144.137 54.577C144.137 55.3215 144.32 55.9728 144.64 56.5777C144.959 57.1826 145.416 57.6013 145.965 57.927C146.513 58.2527 147.152 58.4388 147.838 58.4388ZM161.635 60.8117C159.944 60.8117 158.619 60.3465 157.706 59.3694C156.746 58.3923 156.289 57.043 156.289 55.2749V48.5284H159.031V55.1819C159.031 57.3221 159.899 58.4388 161.68 58.4388C162.548 58.4388 163.188 58.1596 163.645 57.6478C164.102 57.136 164.33 56.2985 164.33 55.1819V48.5284H167.025V55.2749C167.025 57.043 166.569 58.3923 165.609 59.3694C164.65 60.3465 163.325 60.8117 161.635 60.8117ZM174.838 48.5284C175.888 48.5284 176.802 48.7145 177.579 49.0867C178.355 49.459 178.949 49.9242 179.36 50.5756C179.772 51.227 180 52.018 180 52.902C180 53.786 179.772 54.577 179.36 55.2284C178.949 55.8798 178.355 56.3916 177.579 56.7638C176.802 57.136 175.888 57.2756 174.838 57.2756H172.462V60.6256H169.721V48.5749H174.838V48.5284ZM174.701 54.9958C175.523 54.9958 176.162 54.8096 176.574 54.4374C176.985 54.0652 177.213 53.5534 177.213 52.902C177.213 52.2506 176.985 51.6923 176.574 51.3201C176.162 50.9478 175.523 50.7617 174.701 50.7617H172.462V54.9492H174.701V54.9958Z" fill="#252739"/>
</g>
<defs>
<clipPath id="clip0_1025_6">
<rect width="180" height="67" fill="white"/>
</clipPath>
</defs>
</svg>
