<svg width="180" height="67" viewBox="0 0 617 229" fill="none" xmlns="http://www.w3.org/2000/svg"><path d="M19.5749 151.394C27.5614 147.101 36.0178 142.171 43.6911 138.036C55.5926 131.516 49.6419 119.748 41.6553 113.069C41.6553 113.069 39.9327 111.637 37.2706 109.252C27.2482 100.188 17.8523 81.7403 21.7673 66.4736C22.7069 65.3604 23.6464 64.2472 24.8992 63.134C19.1051 67.5868 14.2505 72.9938 10.0223 78.7188C-2.50558 95.7347 -4.66701e-08 122.928 0.626396 143.284C0.939594 153.144 12.2147 155.211 19.5749 151.394ZM49.7985 78.8778C63.5792 70.7674 77.6731 62.4979 91.4538 54.2285C102.572 47.5493 108.053 38.9618 107.74 25.6035C107.74 17.016 107.74 8.42847 107.74 0C82.6843 18.9243 57.785 38.0076 32.8858 57.091C28.0312 61.3847 25.6822 67.1097 25.6822 73.9479C25.6822 83.3306 30.2236 93.1903 35.7046 100.347C34.2952 91.9181 39.3063 84.9208 49.7985 78.8778ZM108.053 84.6028C108.053 84.1257 108.053 83.4896 107.897 83.0125C107.897 82.8535 107.897 82.6944 107.897 82.6944C107.74 82.2174 107.74 81.8993 107.583 81.4222V81.2632C107.427 80.7861 107.27 80.4681 106.957 79.991C106.957 79.8319 106.8 79.8319 106.8 79.6729C106.644 79.3549 106.487 79.0368 106.174 78.7188L106.018 78.5597C105.704 78.2417 105.391 77.9236 105.078 77.6056L104.921 77.4465C104.608 77.2875 104.452 76.9694 104.138 76.8104C103.982 76.8104 103.982 76.6514 103.825 76.6514C103.512 76.4924 103.042 76.1743 102.729 76.0153C102.729 76.0153 102.572 76.0153 102.572 75.8563C102.259 75.6972 101.946 75.5382 101.476 75.3792C101.32 75.3792 101.32 75.3792 101.163 75.2201C100.693 75.0611 100.38 74.9021 99.9101 74.9021C99.9101 74.9021 99.9101 74.9021 99.7535 74.9021C99.2838 74.7431 98.9706 74.7431 98.5008 74.7431C98.3442 74.7431 98.1876 74.7431 98.1876 74.7431C97.7178 74.7431 97.4046 74.7431 96.9348 74.7431H96.7782C96.6216 74.7431 96.6216 74.7431 96.465 74.7431C95.9952 74.7431 95.3688 74.7431 94.899 74.9021C94.7424 74.9021 94.5858 74.9021 94.2726 75.0611C93.8028 75.0611 93.4896 75.2201 93.0198 75.2201C92.8632 75.2201 92.55 75.3792 92.3934 75.3792C91.9236 75.5382 91.6104 75.5382 91.1406 75.6972C90.984 75.6972 90.8274 75.8563 90.6708 75.8563C90.0444 76.0153 89.5746 76.3333 89.1048 76.6514C81.1183 80.9451 72.6619 85.875 64.9886 90.0097C53.0871 96.5299 59.0378 108.298 67.0244 114.977C67.0244 114.977 67.4942 115.295 68.2772 115.931C68.5903 116.249 69.0602 116.726 69.6865 117.203C70.1563 117.681 70.7827 118.158 71.5657 118.794C81.2749 127.699 95.9952 140.899 95.2122 153.78C96.465 152.349 97.5612 150.758 98.8139 149.168C100.38 147.101 101.633 144.715 102.886 142.33C104.608 138.672 105.861 134.856 106.644 130.721C107.27 128.017 107.74 125.155 108.053 122.451C109.306 109.57 108.366 96.0528 108.053 84.6028ZM72.8185 126.427C74.6977 135.333 69.6865 142.648 58.8812 149.009C45.1005 157.119 31.0066 165.389 17.2259 173.658C6.10736 180.337 0.626396 188.925 0.939594 202.283C0.939594 210.871 0.939594 219.458 0.939594 227.887C27.4048 207.849 53.7134 187.653 80.0221 167.615L85.1898 162.844C88.635 159.664 90.201 156.483 90.201 152.826C90.3576 144.079 80.8051 133.901 72.8185 126.427Z" class="logo__fill"></path><path d="M527.582 87.7833C528.991 87.7833 530.401 88.1014 531.81 88.8965C533.22 89.6917 534.159 90.6458 534.942 92.0771C535.725 93.5083 536.038 94.9396 536.038 96.3708C536.038 97.8021 535.725 99.3923 534.942 100.665C534.159 102.096 533.063 103.05 531.81 103.845C530.401 104.64 528.991 104.958 527.582 104.958C526.173 104.958 524.763 104.64 523.354 103.845C521.944 103.05 521.005 102.096 520.222 100.665C519.439 99.3923 519.126 97.8021 519.126 96.3708C519.126 94.9396 519.439 93.5083 520.222 92.0771C521.005 90.6458 522.101 89.6917 523.354 88.8965C524.763 88.1014 526.173 87.7833 527.582 87.7833ZM527.739 89.5326C526.486 89.5326 525.39 89.8507 524.45 90.4868C523.354 91.1229 522.571 91.918 521.944 93.0312C521.318 94.1444 521.005 95.2576 521.005 96.5299C521.005 97.8021 521.318 98.9153 521.944 100.028C522.571 101.142 523.354 101.937 524.45 102.573C525.546 103.209 526.642 103.527 527.895 103.527C529.148 103.527 530.244 103.209 531.34 102.573C532.437 101.937 533.22 101.142 533.846 100.028C534.472 98.9153 534.786 97.8021 534.786 96.5299C534.786 95.2576 534.472 94.1444 533.846 93.0312C533.22 91.918 532.437 91.1229 531.34 90.4868C529.931 89.6917 528.835 89.5326 527.739 89.5326ZM523.824 100.983V91.918H525.703C527.425 91.918 528.365 91.918 528.522 91.918C529.148 91.918 529.618 92.0771 529.931 92.2361C530.244 92.3951 530.557 92.7132 530.714 93.0312C530.871 93.3493 531.027 93.8264 531.027 94.3035C531.027 94.9396 530.871 95.5757 530.401 96.0528C529.931 96.5299 529.461 96.8479 528.678 96.8479C528.991 97.0069 529.148 97.0069 529.305 97.166C529.461 97.325 529.618 97.484 529.931 97.8021C529.931 97.9611 530.244 98.2792 530.557 98.9153L531.654 100.824H529.305L528.522 99.3923C528.052 98.4382 527.582 97.8021 527.269 97.484C526.956 97.166 526.486 97.166 526.016 97.166H525.546V100.983H523.824ZM525.703 95.7347H526.486C527.582 95.7347 528.208 95.7347 528.365 95.5757C528.678 95.5757 528.835 95.4167 528.991 95.0986C529.148 94.9396 529.148 94.6215 529.148 94.4625C529.148 94.3035 529.148 93.9854 528.991 93.8264C528.835 93.6674 528.678 93.5083 528.365 93.3493C528.052 93.3493 527.425 93.1903 526.486 93.1903H525.703V95.7347Z" class="logo__fill"></path><path d="M152.058 150.281C147.203 150.281 142.505 149.645 137.807 148.373C133.266 147.101 129.507 145.51 126.532 143.443L132.17 130.721C134.832 132.47 137.964 134.06 141.565 135.174C145.167 136.287 148.612 136.923 152.058 136.923C158.635 136.923 161.923 135.174 161.923 131.993C161.923 130.244 160.984 128.972 159.105 128.017C157.225 127.222 154.25 126.268 150.178 125.314C145.637 124.36 141.879 123.247 138.747 122.133C135.771 121.02 133.109 119.112 130.917 116.726C128.724 114.182 127.628 110.842 127.628 106.549C127.628 102.732 128.568 99.3924 130.604 96.3708C132.639 93.3493 135.615 90.9639 139.686 89.2146C143.601 87.4653 148.612 86.5111 154.407 86.5111C158.322 86.5111 162.237 86.9882 166.152 87.9424C170.066 88.8965 173.355 90.1687 176.33 91.918L171.006 104.799C165.212 101.619 159.731 100.028 154.25 100.028C150.805 100.028 148.456 100.506 146.89 101.619C145.324 102.573 144.541 104.004 144.541 105.594C144.541 107.185 145.48 108.457 147.36 109.252C149.239 110.047 152.214 111.001 156.286 111.797C160.827 112.751 164.742 113.864 167.718 114.977C170.693 116.09 173.355 117.999 175.547 120.384C177.74 122.928 178.836 126.268 178.836 130.562C178.836 134.219 177.896 137.559 175.861 140.581C173.825 143.602 170.849 145.987 166.778 147.737C162.706 149.327 157.852 150.281 152.058 150.281ZM186.666 87.7833H203.735V149.009H186.666V87.7833ZM262.147 117.044C265.592 118.317 268.254 120.225 270.29 122.769C272.169 125.314 273.265 128.494 273.265 132.152C273.265 137.559 271.073 141.694 266.845 144.556C262.616 147.419 256.509 149.009 248.366 149.009H215.793V87.7833H246.643C254.317 87.7833 260.268 89.2146 264.182 92.0771C268.254 94.9396 270.29 98.9153 270.29 103.845C270.29 106.708 269.663 109.411 268.254 111.637C266.845 113.864 264.809 115.772 262.147 117.044ZM232.706 100.187V111.956H244.451C250.245 111.956 253.064 110.047 253.064 106.072C253.064 102.096 250.245 100.187 244.451 100.187H232.706ZM247.113 136.446C253.064 136.446 256.039 134.378 256.039 130.244C256.039 126.109 253.064 124.042 247.113 124.042H232.863V136.446H247.113ZM303.332 150.281C298.478 150.281 293.78 149.645 289.082 148.373C284.54 147.101 280.782 145.51 277.807 143.443L283.444 130.721C286.106 132.47 289.238 134.06 292.84 135.174C296.442 136.287 299.887 136.923 303.332 136.923C309.909 136.923 313.198 135.174 313.198 131.993C313.198 130.244 312.258 128.972 310.379 128.017C308.5 127.222 305.525 126.268 301.296 125.314C296.755 124.36 292.997 123.247 289.865 122.133C286.889 121.02 284.227 119.112 282.035 116.726C279.842 114.182 278.746 110.842 278.746 106.549C278.746 102.732 279.686 99.3924 281.722 96.3708C283.757 93.3493 286.733 90.9639 290.804 89.2146C294.876 87.4653 299.73 86.5111 305.525 86.5111C309.44 86.5111 313.355 86.9882 317.27 87.9424C321.185 88.8965 324.473 90.1687 327.448 91.918L322.124 104.799C316.33 101.619 310.849 100.028 305.368 100.028C301.923 100.028 299.574 100.506 298.008 101.619C296.442 102.573 295.659 104.004 295.659 105.594C295.659 107.185 296.598 108.457 298.478 109.252C300.357 110.047 303.332 111.001 307.404 111.797C311.945 112.751 315.86 113.864 318.836 114.977C321.811 116.09 324.473 117.999 326.665 120.384C328.858 122.769 329.954 126.268 329.954 130.562C329.954 134.219 329.014 137.559 326.979 140.581C324.943 143.602 321.968 145.987 317.896 147.737C313.981 149.327 309.126 150.281 303.332 150.281ZM349.842 101.46H331.363V87.7833H385.39V101.46H366.911V149.009H349.842V101.46ZM429.238 137.082H403.712L399.014 149.009H381.632L408.254 87.7833H425.01L451.788 149.009H434.092L429.238 137.082ZM424.227 124.36L416.397 104.799L408.567 124.36H424.227ZM482.951 132.788H473.555V149.009H456.486V87.7833H484.047C489.528 87.7833 494.226 88.7375 498.298 90.4868C502.37 92.3951 505.345 94.9396 507.537 98.4382C509.73 101.937 510.826 105.912 510.826 110.524C510.826 115.136 509.73 118.794 507.694 122.133C505.658 125.473 502.683 128.017 498.924 129.926L511.922 149.168H493.6L482.951 132.788ZM493.6 110.365C493.6 107.503 492.66 105.276 490.938 103.686C489.215 102.096 486.553 101.301 482.951 101.301H473.399V119.271H482.951C486.396 119.271 489.059 118.476 490.938 116.885C492.817 115.454 493.6 113.228 493.6 110.365Z" class="logo__fill"></path><path d="M427.202 185.903H435.815V202.601C433.623 204.351 431.117 205.623 428.142 206.418C425.166 207.372 422.347 207.849 419.372 207.849C415.144 207.849 411.386 206.895 407.94 205.146C404.652 203.238 401.99 200.852 399.954 197.512C398.075 194.332 397.135 190.674 397.135 186.54C397.135 182.405 398.075 178.747 399.954 175.567C401.833 172.386 404.495 169.842 407.94 167.933C411.386 166.025 415.144 165.23 419.372 165.23C422.974 165.23 426.106 165.866 429.081 166.979C432.057 168.251 434.406 170.001 436.441 172.227L430.334 177.952C427.359 174.931 423.913 173.34 419.842 173.34C417.336 173.34 414.987 173.817 412.952 174.931C410.916 176.044 409.35 177.634 408.254 179.542C407.157 181.451 406.531 183.836 406.531 186.381C406.531 188.925 407.157 191.151 408.254 193.219C409.35 195.286 410.916 196.717 412.952 197.831C414.987 198.944 417.18 199.58 419.842 199.58C422.504 199.58 425.01 198.944 427.202 197.831V185.903ZM470.423 207.054L462.593 195.604H453.98V207.054H444.584V165.866H462.124C465.725 165.866 468.857 166.502 471.52 167.774C474.182 169.047 476.217 170.637 477.627 172.863C479.036 175.09 479.819 177.793 479.819 180.815C479.819 183.836 479.036 186.54 477.627 188.766C476.217 190.992 474.182 192.742 471.52 193.855L480.602 207.054H470.423ZM470.11 180.815C470.11 178.429 469.327 176.68 467.918 175.408C466.508 174.135 464.316 173.499 461.497 173.499H453.824V187.812H461.497C464.316 187.812 466.508 187.176 467.918 185.903C469.327 184.631 470.11 183.2 470.11 180.815ZM506.754 207.849C502.526 207.849 498.768 206.895 495.323 205.146C491.877 203.238 489.215 200.693 487.336 197.512C485.457 194.332 484.517 190.674 484.517 186.54C484.517 182.405 485.457 178.906 487.336 175.567C489.215 172.386 491.877 169.842 495.323 167.933C498.768 166.025 502.526 165.23 506.754 165.23C510.982 165.23 514.741 166.184 518.186 167.933C521.475 169.842 524.137 172.386 526.173 175.567C528.208 178.747 529.148 182.405 529.148 186.54C529.148 190.674 528.208 194.173 526.173 197.512C524.293 200.693 521.631 203.238 518.186 205.146C514.741 206.895 510.982 207.849 506.754 207.849ZM506.754 199.739C509.103 199.739 511.296 199.262 513.331 197.99C515.211 196.876 516.777 195.286 517.873 193.378C518.969 191.31 519.595 189.084 519.595 186.54C519.595 183.995 518.969 181.769 517.873 179.701C516.777 177.634 515.211 176.203 513.331 175.09C511.452 173.976 509.26 173.34 506.754 173.34C504.405 173.34 502.213 173.976 500.334 175.09C498.455 176.203 496.889 177.793 495.792 179.701C494.696 181.769 494.07 183.995 494.07 186.54C494.07 189.084 494.696 191.31 495.792 193.378C496.889 195.445 498.455 196.876 500.334 197.99C502.213 199.103 504.405 199.739 506.754 199.739ZM554.047 207.849C548.253 207.849 543.712 206.259 540.58 202.919C537.291 199.58 535.725 194.968 535.725 188.925V165.866H545.121V188.607C545.121 195.922 548.096 199.739 554.204 199.739C557.179 199.739 559.372 198.785 560.938 197.035C562.504 195.286 563.287 192.424 563.287 188.607V165.866H572.526V188.925C572.526 194.968 570.96 199.58 567.671 202.919C564.383 206.259 559.841 207.849 554.047 207.849ZM599.304 165.866C602.906 165.866 606.038 166.502 608.7 167.774C611.362 169.047 613.398 170.637 614.808 172.863C616.217 175.09 617 177.793 617 180.815C617 183.836 616.217 186.54 614.808 188.766C613.398 190.992 611.362 192.742 608.7 194.014C606.038 195.286 602.906 195.763 599.304 195.763H591.161V207.213H581.765V166.025H599.304V165.866ZM598.834 187.971C601.653 187.971 603.846 187.335 605.255 186.062C606.664 184.79 607.447 183.041 607.447 180.815C607.447 178.588 606.664 176.68 605.255 175.408C603.846 174.135 601.653 173.499 598.834 173.499H591.161V187.812H598.834V187.971Z" class="logo__fill"></path></svg>