<?xml version="1.0" encoding="utf-8"?>
<!-- Generator: Adobe Illustrator 26.0.2, SVG Export Plug-In . SVG Version: 6.00 Build 0)  -->
<svg version="1.1" id="Слой_1" xmlns="http://www.w3.org/2000/svg" xmlns:xlink="http://www.w3.org/1999/xlink" x="0px" y="0px"
	 viewBox="0 0 1920 1080" style="enable-background:new 0 0 1920 1080;" xml:space="preserve">
<path d="M1903.6,475.2c0.5-0.2,0.9-0.3,1.1-0.4c0-0.1,0-0.1-0.1-0.2c-0.3-0.3-1-0.9-2.9-2.1c-24.5-15.1-49-30.2-73.5-45.3
	c-34.5-21.2-70.2-43.2-105.2-64.9c-3.7-2.3-6.3-5.9-7.9-8.4c-1.5-2.5-2.8-5-4.1-7.6l-1.4,1.7l-3.3,4.1l-4.5-2.7l-8.5-5.2
	c-13.7-8.4-26.7-16.4-39.9-24.6c-2.3-1.4-4.6-4.3-4.6-7.7c-0.1-8.1-0.1-16.1-0.1-24.5c0-1.2,0-2.4,0-3.6l-4.4-2.7l-27-16.8
	c-39.5-24.6-80.4-50-120.6-75.1c-1.3-0.8-2.1-0.9-2.7-0.9c-0.5,0-1,0.1-1.6,0.2c-3.5,0.8-7,1.4-10.4,2c-5.4,0.9-10.5,1.8-15.1,3.5
	c-3,1.1-5.9,1.7-8.7,1.7c-6.4,0-11.6-3-15.9-5.9c-4.5-3.1-5.9-7.1-4.3-12.4c0.1-0.4,0.2-0.8,0.4-1.2c0.5-1.7,1.5-4.8,1.2-5.8
	c-2.3-7.8-5.2-15.6-8-23.2l-2.6,5l-8.3,16.3l-2.9,5.6l-5.5-3.2c-0.5-0.3-1-0.6-1.6-0.8c-1.3-0.7-2.8-1.5-4.2-2.7
	c-1.7-1.6-3.1-1.8-4.2-1.8c-1.3,0-3,0.4-5.2,1.2c-6.2,2.4-12.6,4.4-18.9,6.3c-2.6,0.8-5.3,1.7-8,2.5l-4.7,1.5l-2.4-4.3
	c-0.3-0.5-0.5-0.9-0.7-1.4c-0.1-0.2-0.3-0.6-0.4-0.7c-3.3-4-3.9-8.5-4.4-12c-0.2-1.6-0.4-3.1-0.8-4.3c-1.8-5-3.9-9.9-6.2-15
	c-0.6-1.3-1.2-2.6-1.7-3.9c0,0.1-0.1,0.2-0.1,0.3c-3.9,10.7-8,21.8-11.6,32.8c-0.2,0.8-0.5,1.5-0.8,2.1c-0.2,0.4-0.5,1.1-0.6,1.6
	c1.3,1,2.1,2.4,2.4,4c0.6,4-3.3,9.5-3.3,9.6c-1.8,2.4-4.4,3-6,3.3c-0.2,0-0.5,0.1-0.7,0.2c-154.6,50.2-309.1,100.4-463.7,150.7
	c-8.3,2.7-16.6,5.4-25,8.1l-11.7,3.8l-5.2,1.7l-2.2-5l-7.4-17.3c-3.3,7.8-6.6,15.8-10.1,23.7c-1.5,3.4-4.7,6.4-8,7.6
	c-10.7,3.7-21.6,7.2-32.1,10.6c-3.1,1-6.1,2-9.2,3l-17.1,5.6c-47,15.3-95.5,31.1-143.3,46.5c-1.3,0.4-2.8,0.7-4.3,0.7
	c-1.7,0-4.3-0.3-6.4-1.9c-2.6-1.9-4.2-4.5-4.4-7.4c-0.1-1.6,0.2-3.1,0.8-4.6c-1.7-2.4-3.4-4.8-5.2-7.3c-0.3,0.7-0.6,1.5-0.8,2.2
	c-0.5,1.6-1.3,2.9-1.9,4.1c-1.3,2.3-1.2,2.4-1,3.1c1.3,3.5,1,6.9,0.8,10.2c-0.1,1.3-0.2,2.5-0.2,3.7v4.2l-4,1.4
	c-0.4,0.1-0.8,0.3-1.2,0.5c-1.1,0.4-2.4,0.9-3.7,1.3l-25.5,8.3c-171,55.6-347.8,113-521.8,169.4c-0.4,0.1-0.7,0.2-0.9,0.3
	c0,0.1,0,0.3,0,0.5c0.3,0.2,0.6,0.4,0.9,0.5c0.3,0.2,0.6,0.3,0.8,0.5L94.9,667c137.1,84.4,279,171.7,418.4,257.7
	c1.4,0.8,2.2,0.9,2.8,0.9c0.7,0,1.7-0.2,2.9-0.6c115.1-37.5,239.4-77.9,380-123.6C1257.2,685,1580.1,580.1,1903.6,475.2z"/>
</svg>
