<?xml version="1.0" encoding="utf-8"?>
<!-- Generator: Adobe Illustrator 26.0.2, SVG Export Plug-In . SVG Version: 6.00 Build 0)  -->
<svg version="1.1" id="Слой_1" xmlns="http://www.w3.org/2000/svg" xmlns:xlink="http://www.w3.org/1999/xlink" x="0px" y="0px"
	 viewBox="0 0 1440 736" style="enable-background:new 0 0 1440 736;" xml:space="preserve">
<style type="text/css">
	.st0{fill:none;stroke:#54B9F9;stroke-width:3.992;stroke-dasharray:11.976,3.992;}
</style>
<path class="st0" d="M1131.3,398.5l-8-33.9l-31.9-30.9l-16-27.9l-43.9-28.9h-49.9l-32.9,18l-22-8l-24,20.9l-26.9,10l-1,35.9
	l-59.9,17l-24.9-15l-100.8,33.9l-3-18l-24.9-7l-10-13l-59.9,27.9l-21-12l16-20.9l-67.9-80.8l-54.9-18.9l-8-21.9l-18-18.9l-69.9,13
	L328,279.8l-28.9,18l-11-3l-6,5l-17-7l-1-16"/>
<path class="st0" d="M1130.1,398.7l40.9,46.9l28.9,20.9l23.9-1l51.9,10"/>
<path class="st0" d="M281.8,300l-11,15l-11-3l-8-11l-12,2l-9-10h-16l-18-1"/>
</svg>
